<svg xmlns="http://www.w3.org/2000/svg" width="89" height="88" fill="none"><g clip-path="url(#a)"><path fill="#fff" d="M29.823 70.267s3.895-2.315 4.582-17.49c0 0-.374-2.669-1.095-3.01-.722-.341-1.157-2.68-1.157-2.68l-2.944-6.969 5.2-2.032s5.369 3.673 5.913 3.894c.544.22 7.19 10.793 7.19 10.793l9.021 7.535-1.13 9.505 3.649 1.292 1.774 4.929-8.015 7.116H37.275c-.872 0-5.119-3.94-5.119-4.49 0-.551-2.33-8.4-2.33-8.4l-.003.007Z"/><path fill="#002E21" d="M58.123 26.53c.822 1.488 1.138 3.144 1.508 4.773 1.134 4.976 2.762 9.781 4.733 14.49 1.107 2.64 1.473 5.456 1.408 8.341-.062 2.78-1.296 4.638-3.873 5.639-1.562.605-3.167 1.035-4.775 1.388-.806 1.555-1.18 4.902-.895 8.013.505.504 1.188.659 1.882.767 8.247 1.323 16.258 3.603 24.27 5.918 4.339 1.257 7.451 3.898 9.854 7.578 3.09 4.728 5.23 9.901 7.051 15.218 1.543 4.511 2.901 9.075 3.919 13.737.231 1.059.791 2.016.856 3.153.058 1.004.378 1.993.571 2.92-.694.589-1.508.132-2.229.636-.004 1.935.64 3.828.976 5.767.86 5.018 2.213 9.947 2.73 15.028.417 4.107.008 8.136-1.485 11.991-2.098 5.422-6.873 8.303-12.651 7.799-3.367-.295-6.538-1.315-9.643-2.563-6.888-2.769-13.257-6.52-19.451-10.584-2.365-1.551-4.683-3.165-6.916-4.677-.995-.039-1.593.512-2.252.884-7.68 4.32-15.44 8.486-23.367 12.321-5.554 2.688-11.197 5.162-17.068 7.117-4.836 1.609-9.133.682-13.048-2.362-3.437-2.676-6.14-5.945-6.87-10.402-.416-2.547-.285-5.146.016-7.725.617-5.325 1.192-10.649 1.782-15.978.027-.256 0-.516 0-.834-.868-.535-1.832.109-2.75-.069-.09-.222-.236-.404-.22-.571.393-4.56.385-9.14.883-13.705.525-4.809 1.038-9.614 2.06-14.345.937-4.355 2.098-8.64 4.478-12.488 1.15-1.854 2.623-3.316 4.513-4.394 3.984-2.265 8.2-3.995 12.547-5.383 3.969-1.268 7.988-2.362 11.991-3.517.363-.105.753-.101 1.165-.152.73 1.257 1.373 2.51 2.141 3.677 1.65 2.51 3.73 4.607 6.306 6.166 4.756 2.874 9.662 2.765 14.546.462 3.537-1.668 5.241-5.046 4.813-8.908-.056-.51-.419-.9-1.087-1.172-.552.663.32 1.652-.687 2.494-.57-2.036-.455-3.936-.513-5.817-.058-1.87.293-3.712.428-5.515-.625-.438-1.219-.248-1.774-.229-1.616.054-3.205-.14-4.79-.407-3.862-.655-6.562-2.785-8.05-6.43a23.547 23.547 0 0 1-.834-2.366c-.12-.41-.227-.911.344-1.16.501 1.25.96 2.518 1.508 3.743 1.203 2.7 3.201 4.487 6.113 5.127 4.232.927 8.413.818 12.528-.675 3.206-1.163 4.097-2.311 4.12-5.7.023-3.673-.934-7.125-2.558-10.402-.694-1.916-1.62-3.746-2.106-5.74-.011-.042-.216-.034-.327-.05l.046.058c.432-.64-.004-1.248-.116-1.85-.22-1.198-.544-2.373-.825-3.56.289-.457.158-.756-.34-.923-.37-1.5-.736-3.002-1.107-4.502.174-.02.347-.04.521-.058v.007Zm27.682 94.894c2.346.663 4.695 1.322 7.04 1.986.378.104.771.19.613.76-.552.43-1.11.077-1.628-.066-7.24-1.978-14.472-3.999-21.711-5.98a4063.54 4063.54 0 0 0-19.895-5.368c-1.67-.446-3.46-.515-5.015-1.303-4.96-2.517-10.275-3.637-15.74-4.111-2.222-.194-6.89.19-6.7.218-.42.62-.521 10.056-1 13.371 1.825.989 3.488 1.835 5.096 2.773a6119.925 6119.925 0 0 1 19.937 11.736c3.707 2.187 7.48 4.277 11.078 6.635 3.117 2.04 6.144 4.231 9.327 6.174 5.82 3.557 11.764 6.884 18.255 9.079 2.627.888 5.296 1.609 8.096 1.528 3.533-.105 6.5-1.446 8.636-4.347 1.119-1.517 1.84-3.243 2.307-5.077 1.13-4.471 1.018-8.951.166-13.442-.505-2.66-1.022-5.317-1.543-7.973-.575-2.905-1.161-5.806-1.786-8.912-5.234.617-10.38 1.221-15.52 1.83-.337-.054.628-.155.323.346.305.213-.69.193-.332.155l-.004-.012Zm-59.033 3.355c-4.74 1.345-9.31 2.645-13.881 3.936-3.398.962-6.8 1.912-10.199 2.874-.49.139-1.006.407-1.215-.644l18.434-5.251c.15-1.051.123-1.986.019-3.141-7.969.709-15.814 1.407-23.694 2.105-.756 6.477-1.54 12.868-2.245 19.271-.644 5.844 1.388 10.653 5.82 14.442 3.884 3.32 8.2 4.685 13.234 2.928 2.306-.802 4.625-1.563 6.873-2.517 11.495-4.878 22.507-10.731 33.368-16.874.359-.201.895-.255.91-1.012-9.071-5.336-18.209-10.707-27.424-16.125v.008Zm44.365-18.042c-.181-.566.131-.857.324-1.151 1.103-1.676-.247-3.619-2.214-3.561a8.308 8.308 0 0 0-2.993.629 25.687 25.687 0 0 0-6.58 3.952c-2.072 1.718-3.765 3.785-5.439 6.181 4.933 1.346 9.608 2.622 14.275 3.898 1.01-.776 1.913-1.493 2.847-2.172.925-.675 1.562-1.761 2.839-1.978-.776 2.083-2.963 2.862-4.29 4.584 2.504.683 4.841 1.319 7.163 1.947 1.215-1.225 2.176-2.451 1.678-4.173-.525-1.815-2.017-2.319-3.873-2.35.73-1.175 1.555-2.106 1.67-3.389.201-2.265-1.049-3.448-3.259-2.998-.725.147-1.434.391-2.14.593l-.008-.012Zm-43.693-9.765c-.14 2.04.12 4.119.17 6.147 1.542.504 13.823.093 15.532-.531-.089-2.017-.178-4.096-.266-6.12-1.802-.392-13.851 0-15.44.504h.004Zm54.724 23.234c-.096-.481-.181-.973-.3-1.454-1.216-4.949-2.438-9.893-3.657-14.842-.895-3.63-1.778-7.264-2.704-10.886-.154-.6-.058-1.442-.933-1.656-.564.62-.22 1.18-.09 1.714 1.667 6.764 3.345 13.524 5.019 20.283.494 2.005.972 4.01 1.485 6.011.135.528.216 1.234 1.184.834l-.004-.004Zm-56.927 3.975c-1.439-.608-2.38-2.602-4.374-1.512.181.935-.181 1.838.286 2.719 1.411-.419 2.75-.811 4.088-1.207Z"/><path fill="#FE7704" d="m58.123 26.529-.521.058c-1.797.148-3.456.861-5.192 1.272-4.1.97-8.18 2.04-12.42 2.21-.397.016-.76.105-1.234.493.108.962-.208 2.005-.451 3.064-.247 1.094-.247 2.16.077 3.227-.883 1.132-2.23 1.842-2.9 3.168-.062.008-.128.023-.19.027-2.97.213-3.706.923-3.965 3.836-1.246.527-1.867 1.826-3.02 2.466-.926-1.54-2.04-2.963-2.816-4.595-1.708-3.607-2.133-7.26-.273-10.945.432-.853 1.041-1.617 1.647-2.544-.432-2.854.378-5.507 2.268-7.795 2.372-2.873 5.45-4.646 9.03-5.557 2.14-.543 4.319-.648 6.475-.225.745.147 1.227-.163 1.79-.415 2.97-1.33 5.967-1.633 9.145-.671 2.95.892 4.393 2.963 5.06 5.755.27 1.129.217 2.316.058 3.471-.227 1.664-1.342 2.726-2.568 3.704v-.004Z"/><path fill="#F5E6D7" d="M62.377 43.151c1.62 3.277 2.58 6.725 2.558 10.401-.023 3.39-.914 4.538-4.12 5.701-4.111 1.493-8.292 1.602-12.527.675-2.913-.636-4.91-2.428-6.114-5.127-.548-1.23-1.007-2.493-1.508-3.742-.174-1.877.247-3.774-.347-5.654-.378-1.195-.73-2.37-1.412-3.433-.162-.248-.17-.597-.25-.9.404-.608.929-1.097 1.523-1.512.07.376.115.756.413 1.055 1.276 1.268 2.483 2.622 3.833 3.804 1.165 1.017 2.554 1.571 4.185 1.513 2.353-.085 4.68-.656 7.047-.411.097.52.386.744.907.566.57-.194 1.138-.396 1.709-.597.335-.05.867.21.786-.5l-.019-.09c.648.435 1.142.175 1.647-.306.536-.508.926-1.195 1.678-1.443h.011Zm-9.511 5.546c-.262 1.19.443 1.656 1.223 1.803.806.148 1.8.5 2.445-.806-1.439.337-2.654.108-3.668-.997Z"/><path fill="#FE7704" d="M34.097 52.9c-1.72.035-2.92-.736-3.614-2.327-.178-.407-.448-.771-.68-1.155.645-.916 1.497-1.621 2.35-2.327.636.872 1.238 1.78 2.129 2.365.285 1.152.108 2.242.123 3.324a.374.374 0 0 1-.308.12Z"/><path fill="#002E21" d="M34.097 52.901a.374.374 0 0 0 .309-.12c.605.302.474.869.44 1.357-.32 4.778-1.065 9.47-2.905 13.927-.282.678-.498 1.462-1.578 1.756.513-1.256 1.019-2.342 1.408-3.467 1.362-3.92 1.983-7.98 2.199-12.115.023-.446.084-.892.127-1.338ZM32.152 47.091c-.848.706-1.704 1.412-2.349 2.327-.466.326-.918.682-1.411.97-.625.364-1.246.267-1.744-.256-.517-.543-.486-1.172-.088-1.761.497-.74 1.334-1.199 1.747-2.02 1.157-.64 1.778-1.94 3.02-2.467.235.62.02 1.074-.448 1.52-.732.698-1.404 1.466-2.194 2.3-.05.248.243.392.617.612.764-.663 1.554-1.35 2.303-1.997.478.136.528.442.543.772h.004Zm-4.393 1.357c-.447.299-.914.57-.424 1.148.239.283.555.187.794-.05.425-.423.263-.749-.37-1.098ZM40.187 39.56c-.594.414-1.119.903-1.524 1.512-.362.17-.717.314-1.049-.256.193-.877 1.489-1.101 1.57-2.133-.783-.752-1.157.012-1.597.376-.621.508-1.072 1.35-2.098.962.67-1.326 2.017-2.036 2.9-3.169 1.015.074 1.883-.798 3.055-.53-.143 1.256-.713 2.24-1.253 3.234l-.004.004ZM35.566 43.089c-.104.888-1.053 1.462-.752 2.462.27.912 1.431.842 1.686 1.722-1.659.008-2.592-.694-2.689-1.981-.089-1.214.444-1.92 1.755-2.203Z"/><path fill="#fff" d="M40.188 39.56c.54-.997 1.11-1.978 1.253-3.235-1.172-.271-2.04.605-3.055.532-.324-1.07-.324-2.133-.077-3.227.24-1.055.56-2.102.452-3.064.474-.387.837-.477 1.234-.492 4.239-.175 8.316-1.245 12.42-2.21 1.735-.412 3.394-1.125 5.191-1.273l1.107 4.503c-.76.112-1.67-.027-1.866 1.09.825.52 1.477-.295 2.206-.167.281 1.187.61 2.362.825 3.56.108.601.548 1.206.116 1.85-.567-.144-.556-1.055-1.288-.977-.934 1.28-.795 1.803.678 2.466.116-.136.297-.264.344-.426.108-.361.146-.745.216-1.121.115.015.32.011.328.05.49 1.994 1.411 3.824 2.106 5.74-.756.248-1.146.938-1.678 1.443-.506.477-1 .74-1.647.306 1.265-2.06 1.25-2.455-.158-4.309-.313-.41-.629-.818-.945-1.221-1.755-2.227-2.951-4.674-3.009-7.582 0-.078-.162-.155-.278-.26-.559.287-.536.822-.52 1.326.046 1.718.644 3.277 1.473 4.751.73 1.295 1.651 2.455 2.565 3.618 1.27 1.614.945 2.719-.941 3.607-.517.244-1.161.19-1.562.683-2.372-.249-4.694.325-7.047.41-1.632.059-3.02-.496-4.185-1.512-1.354-1.183-2.557-2.536-3.834-3.804-.3-.299-.343-.675-.413-1.055h-.011Zm10.047-5.519c-1.793-1.477-3.602-1.132-4.42.85 1.813.197 3.263-.082 4.42-.85Zm.163 4.05c-1.154 1.438-1.054 1.946.493 3.036 1.466-1.098 1.339-2.079-.493-3.037Z"/><path fill="#FE7704" d="M59.049 32.009c-.733-.128-1.381.686-2.207.167.2-1.117 1.111-.982 1.867-1.09.494.167.625.465.34.923Z"/><path fill="#002E21" d="M55.67 45.52c.405-.492 1.046-.442 1.563-.682 1.886-.885 2.214-1.994.94-3.607-.917-1.163-1.84-2.327-2.564-3.618-.83-1.474-1.428-3.033-1.474-4.751-.015-.504-.035-1.04.521-1.326.116.104.278.178.278.26.061 2.908 1.257 5.355 3.008 7.581.32.404.637.81.945 1.222 1.408 1.858 1.423 2.25.158 4.309l.02.089c-.351.027-.602.213-.787.5-.571.198-1.138.403-1.709.597-.52.175-.806-.05-.906-.566l.007-.008ZM52.866 48.697c1.014 1.105 2.23 1.334 3.668.996-.64 1.307-1.635.955-2.445.807-.783-.143-1.485-.609-1.223-1.803Z"/><path fill="#fff" d="M58.285 45.493c.185-.287.436-.473.787-.5.081.71-.451.45-.787.5Z"/><path fill="#F5E6D7" d="M27.759 48.448c.632.353.794.675.37 1.098-.24.24-.555.337-.795.05-.49-.581-.023-.85.425-1.148Z"/><path fill="#FE7704" d="M50.236 34.04c-1.157.773-2.608 1.048-4.42.85.817-1.982 2.626-2.33 4.42-.85Z"/><path fill="#002E21" d="M50.397 38.09c1.833.962 1.96 1.939.494 3.036-1.547-1.09-1.643-1.597-.494-3.036ZM59.943 37.36c-.07.373-.108.757-.216 1.122-.05.166-.228.29-.344.426-1.473-.663-1.612-1.187-.678-2.466.732-.078.72.834 1.288.977l-.046-.058h-.004Z"/></g><defs><clipPath id="a"><path fill="#fff" d="M.333 0h88v88h-88z"/></clipPath></defs></svg>