<svg width="157" height="206" viewBox="0 0 157 206" fill="none" xmlns="http://www.w3.org/2000/svg">
<g clip-path="url(#clip0_2006_9456)">
<path d="M52.2132 78.8178C52.2132 78.8178 57.5255 75.6606 58.4618 54.9671C58.4618 54.9671 57.9516 51.3286 56.968 50.8632C55.9845 50.3979 55.3901 47.209 55.3901 47.209L51.377 37.7057L58.467 34.9346C58.467 34.9346 65.7885 39.9427 66.5301 40.2441C67.2718 40.5456 76.3342 54.9618 76.3342 54.9618L88.6367 65.2371L87.0956 78.199L92.0712 79.96L94.4907 86.6816L83.561 96.3858H62.375C61.1863 96.3858 55.3954 91.0128 55.3954 90.2619C55.3954 89.5109 52.2185 78.8072 52.2185 78.8072L52.2132 78.8178Z" fill="white"/>
<path d="M90.8028 19.1756C91.9231 21.2064 92.3544 23.4645 92.8593 25.6856C94.4057 32.4707 96.6253 39.023 99.313 45.4431C100.823 49.0445 101.322 52.8839 101.233 56.8185C101.149 60.6103 99.4655 63.1434 95.952 64.5078C93.8219 65.3328 91.6338 65.9198 89.4405 66.4011C88.3413 68.5217 87.8311 73.0856 88.2203 77.3269C88.9093 78.0144 89.8403 78.2259 90.787 78.374C102.032 80.1774 112.957 83.2869 123.881 86.4441C129.798 88.1576 134.043 91.759 137.32 96.7777C141.533 103.224 144.452 110.279 146.934 117.529C149.038 123.68 150.89 129.904 152.278 136.261C152.594 137.705 153.356 139.011 153.446 140.56C153.525 141.93 153.961 143.279 154.224 144.543C153.277 145.346 152.168 144.722 151.184 145.41C151.179 148.049 152.057 150.629 152.515 153.274C153.688 160.117 155.534 166.838 156.239 173.766C156.807 179.367 156.249 184.861 154.214 190.118C151.352 197.511 144.841 201.44 136.962 200.753C132.37 200.351 128.047 198.96 123.813 197.257C114.419 193.481 105.735 188.368 97.288 182.825C94.0638 180.71 90.9027 178.51 87.8574 176.447C86.5004 176.395 85.6851 177.146 84.7857 177.653C74.3136 183.545 63.7311 189.224 52.9224 194.454C45.3485 198.119 37.6535 201.493 29.6483 204.159C23.0526 206.353 17.1933 205.089 11.8547 200.938C7.16834 197.289 3.48129 192.831 2.4872 186.755C1.91916 183.28 2.09799 179.737 2.50824 176.22C3.34979 168.959 4.13349 161.698 4.93822 154.432C4.97504 154.083 4.93822 153.728 4.93822 153.295C3.75479 152.565 2.43987 153.443 1.18806 153.2C1.06709 152.898 0.867217 152.65 0.888256 152.422C1.42474 146.203 1.41423 139.957 2.09273 133.733C2.80805 127.175 3.50759 120.623 4.90141 114.171C6.17951 108.232 7.76268 102.389 11.0079 97.1426C12.5753 94.6147 14.5845 92.621 17.1618 91.1508C22.595 88.0624 28.3439 85.7037 34.2716 83.8105C39.6838 82.0812 45.1644 80.5899 50.624 79.0139C51.1184 78.8711 51.6496 78.8764 52.2124 78.8077C53.2065 80.5211 54.0848 82.2293 55.1315 83.8211C57.3827 87.2427 60.2177 90.1037 63.7311 92.2296C70.2163 96.1483 76.9067 96.0003 83.5654 92.8589C88.3886 90.5849 90.7134 85.9787 90.1295 80.7115C90.0524 80.0169 89.558 79.4846 88.6463 79.1144C87.8942 80.0187 89.0829 81.3672 87.7101 82.5148C86.9317 79.7384 87.0894 77.1471 87.0106 74.5822C86.9317 72.0332 87.4103 69.5212 87.5944 67.0621C86.7423 66.4645 85.9323 66.7237 85.1749 66.7501C82.9711 66.8241 80.8041 66.5597 78.6424 66.1948C73.3774 65.3011 69.6956 62.3977 67.6654 57.4266C67.2341 56.369 66.8449 55.2954 66.5293 54.2007C66.3662 53.6401 66.219 52.9579 66.9974 52.6195C67.6812 54.3223 68.3071 56.0517 69.0539 57.7228C70.695 61.4035 73.4195 63.8415 77.3906 64.7141C83.1604 65.978 88.862 65.8299 94.4741 63.7939C98.8449 62.2074 100.06 60.642 100.091 56.0199C100.123 51.0118 98.8186 46.3051 96.6042 41.8364C95.6575 39.224 94.3952 36.7278 93.7324 34.0096C93.7167 33.9514 93.4379 33.962 93.2854 33.9408L93.3485 34.0202C93.9376 33.1476 93.3432 32.3173 93.1907 31.4976C92.8909 29.8635 92.4491 28.2611 92.0651 26.6428C92.4596 26.0188 92.2808 25.6116 91.6023 25.3842C91.0973 23.3376 90.5977 21.291 90.0927 19.2444C90.3294 19.2179 90.5661 19.1915 90.8028 19.165V19.1756ZM128.552 148.578C131.75 149.482 134.953 150.381 138.151 151.285C138.666 151.428 139.203 151.544 138.987 152.322C138.235 152.909 137.472 152.428 136.767 152.232C126.895 149.535 117.033 146.78 107.16 144.077C98.1243 141.607 89.0776 139.18 80.0309 136.758C77.7535 136.15 75.313 136.055 73.1933 134.981C66.4293 131.549 59.1815 130.021 51.7285 129.375C48.6989 129.111 42.3347 129.635 42.5924 129.672C42.0191 130.518 41.8823 143.384 41.2301 147.906C43.718 149.254 45.9849 150.407 48.1782 151.687C57.2512 156.997 66.3084 162.343 75.3656 167.69C80.4201 170.673 85.5641 173.523 90.4714 176.738C94.7213 179.52 98.8501 182.508 103.189 185.157C111.126 190.007 119.231 194.544 128.084 197.538C131.665 198.749 135.305 199.732 139.124 199.621C143.942 199.478 147.986 197.649 150.9 193.693C152.425 191.625 153.409 189.272 154.045 186.77C155.586 180.673 155.434 174.565 154.272 168.441C153.583 164.813 152.878 161.19 152.168 157.568C151.384 153.607 150.585 149.651 149.732 145.415C142.595 146.256 135.579 147.081 128.567 147.911C128.11 147.837 129.425 147.7 129.009 148.382C129.425 148.673 128.068 148.646 128.557 148.593L128.552 148.578ZM48.052 153.152C41.5878 154.987 35.3551 156.759 29.1223 158.52C24.4885 159.831 19.8495 161.127 15.2157 162.438C14.5477 162.629 13.8429 162.994 13.5589 161.561C21.9323 159.176 30.3005 156.79 38.695 154.4C38.9001 152.967 38.8633 151.692 38.7213 150.117C27.8547 151.084 17.1565 152.036 6.41094 152.988C5.38004 161.82 4.31232 170.535 3.34979 179.266C2.47142 187.236 5.24329 193.793 11.2867 198.96C16.5832 203.487 22.4688 205.349 29.3327 202.953C32.478 201.858 35.6391 200.822 38.7055 199.521C54.3794 192.868 69.3958 184.888 84.2071 176.511C84.6963 176.236 85.4274 176.162 85.4484 175.131C73.0776 167.854 60.6174 160.529 48.052 153.141V153.152ZM108.549 128.55C108.302 127.778 108.728 127.382 108.991 126.98C110.495 124.695 108.654 122.046 105.972 122.125C104.552 122.167 103.195 122.437 101.89 122.982C98.6345 124.336 95.6259 126.123 92.9172 128.371C90.0927 130.713 87.7837 133.532 85.501 136.8C92.2282 138.635 98.6029 140.375 104.967 142.115C106.345 141.057 107.576 140.079 108.849 139.154C110.111 138.233 110.979 136.753 112.72 136.457C111.663 139.296 108.681 140.359 106.871 142.707C110.285 143.638 113.472 144.506 116.638 145.362C118.295 143.691 119.605 142.02 118.926 139.672C118.211 137.197 116.176 136.509 113.646 136.467C114.64 134.865 115.765 133.596 115.923 131.845C116.197 128.757 114.492 127.144 111.479 127.757C110.49 127.958 109.522 128.291 108.56 128.566L108.549 128.55ZM48.9672 115.234C48.7778 118.016 49.1302 120.85 49.1986 123.616C51.3025 124.304 68.0493 123.743 70.3794 122.892C70.2584 120.142 70.1374 117.307 70.0165 114.547C67.5602 114.013 51.1289 114.547 48.9619 115.234H48.9672ZM123.592 146.917C123.46 146.261 123.345 145.59 123.181 144.934C121.525 138.186 119.857 131.443 118.195 124.695C116.975 119.745 115.771 114.79 114.508 109.851C114.298 109.031 114.429 107.883 113.235 107.592C112.467 108.439 112.936 109.2 113.114 109.93C115.387 119.153 117.675 128.371 119.957 137.588C120.631 140.322 121.283 143.056 121.982 145.785C122.166 146.505 122.277 147.467 123.597 146.922L123.592 146.917ZM45.9639 152.338C44.002 151.507 42.7186 148.789 39.9994 150.275C40.2466 151.55 39.7522 152.782 40.3886 153.982C42.3136 153.411 44.1388 152.877 45.9639 152.338Z" fill="#002E21"/>
<path d="M90.8029 19.1755C90.5662 19.202 90.3295 19.2284 90.0928 19.2549C87.6418 19.4558 85.3801 20.4289 83.0133 20.9895C77.4222 22.3116 71.8574 23.7712 66.077 24.0039C65.5353 24.025 65.0409 24.1466 64.3939 24.6755C64.5412 25.987 64.1099 27.4096 63.7785 28.8533C63.4419 30.3447 63.4419 31.799 63.8837 33.2533C62.6793 34.7975 60.8436 35.7653 59.9284 37.5739C59.8443 37.5845 59.7549 37.6056 59.6707 37.6109C55.6208 37.9018 54.6162 38.8696 54.2638 42.8412C52.5649 43.5604 51.7181 45.332 50.1454 46.2046C48.8831 44.1051 47.363 42.1642 46.3058 39.9378C43.9758 35.0196 43.3972 30.0379 45.9324 25.0139C46.5215 23.8505 47.3525 22.8087 48.1783 21.5448C47.5892 17.6525 48.6937 14.0352 51.271 10.9151C54.5057 6.99635 58.7029 4.57955 63.5839 3.33677C66.5031 2.5964 69.4748 2.45361 72.415 3.03005C73.4301 3.23101 74.0876 2.80793 74.8555 2.46419C78.9054 0.650265 82.9922 0.237769 87.3262 1.54929C91.3499 2.76563 93.317 5.58963 94.2269 9.39729C94.5951 10.9362 94.5215 12.5545 94.3058 14.1304C93.9955 16.3991 92.4755 17.8482 90.8029 19.1808V19.1755Z" fill="#FE7704"/>
<path d="M96.605 41.8424C98.814 46.3111 100.124 51.0125 100.092 56.0259C100.061 60.6479 98.8456 62.2133 94.4748 63.7998C88.8679 65.8359 83.1664 65.9839 77.3913 64.72C73.4202 63.8527 70.6957 61.4095 69.0547 57.7287C68.3078 56.0523 67.6819 54.3283 66.9981 52.6254C66.7614 50.0658 67.3347 47.4798 66.5247 44.9149C66.0093 43.2861 65.5307 41.6837 64.5997 40.2347C64.3788 39.8962 64.3683 39.4203 64.2578 39.0078C64.8101 38.1775 65.5254 37.5112 66.3354 36.9453C66.4301 37.4583 66.4932 37.9766 66.8982 38.3838C68.6391 40.1131 70.2854 41.9587 72.1263 43.5717C73.7147 44.9572 75.6082 45.7135 77.8331 45.6342C81.0415 45.5178 84.2131 44.7404 87.4426 45.0736C87.5741 45.7822 87.9685 46.089 88.6786 45.8457C89.457 45.5813 90.2302 45.3063 91.0086 45.0313C91.4662 44.9625 92.1921 45.3169 92.0816 44.3491L92.0553 44.2274C92.9389 44.8197 93.6122 44.4654 94.3012 43.8097C95.0323 43.1169 95.5635 42.1808 96.5892 41.8424H96.605ZM83.6345 49.4048C83.2769 51.0283 84.2394 51.6629 85.3019 51.8639C86.4011 52.0649 87.7581 52.5461 88.6365 50.7639C86.6746 51.224 85.0178 50.912 83.6345 49.4048Z" fill="#F5E6D7"/>
<path d="M58.0396 55.1369C55.6938 55.1845 54.058 54.1321 53.1113 51.9638C52.8693 51.4086 52.5011 50.9114 52.1855 50.3879C53.0639 49.1398 54.2263 48.1773 55.3887 47.2148C56.2566 48.4047 57.0771 49.6422 58.2921 50.4408C58.6813 52.0114 58.4393 53.4975 58.4604 54.9729C58.3447 55.0946 58.2026 55.1475 58.0396 55.1369Z" fill="#FE7704"/>
<path d="M58.0406 55.1366C58.2037 55.1472 58.3457 55.0943 58.4614 54.9727C59.2872 55.3852 59.1083 56.1573 59.061 56.8236C58.6244 63.3389 57.6093 69.7379 55.1004 75.8143C54.7165 76.7397 54.4219 77.808 52.9492 78.2099C53.6488 76.4965 54.3378 75.0157 54.869 73.4821C56.7257 68.1355 57.5725 62.5985 57.867 56.9611C57.8986 56.3529 57.9827 55.7448 58.0406 55.1366Z" fill="#002E21"/>
<path d="M55.3895 47.2153C54.2323 48.1778 53.0647 49.1403 52.1863 50.3883C51.5499 50.8326 50.9345 51.3191 50.2613 51.7104C49.4092 52.2076 48.5624 52.0754 47.8839 51.3614C47.1791 50.621 47.2212 49.7643 47.7629 48.9605C48.4414 47.9504 49.5828 47.3264 50.1456 46.2052C51.7235 45.3326 52.5703 43.561 54.2639 42.8418C54.5847 43.6879 54.2902 44.3067 53.6538 44.9149C52.6544 45.8668 51.7392 46.9139 50.661 48.0509C50.5926 48.3893 50.9924 48.585 51.5026 48.8864C52.544 47.9821 53.6222 47.0461 54.6426 46.1629C55.2948 46.348 55.3632 46.7658 55.3842 47.2153H55.3895ZM49.3987 49.0662C48.7885 49.4735 48.1521 49.8436 48.8201 50.6316C49.1462 51.0177 49.5775 50.8855 49.9036 50.5629C50.4822 49.9864 50.2613 49.5422 49.3987 49.0662Z" fill="#002E21"/>
<path d="M66.3458 36.9446C65.5358 37.5104 64.8205 38.1768 64.2682 39.0071C63.7738 39.2398 63.2899 39.4354 62.8375 38.658C63.1005 37.4628 64.8678 37.1561 64.9782 35.7494C63.9105 34.7235 63.4003 35.7653 62.8007 36.2624C61.9539 36.9552 61.3385 38.1027 59.9395 37.5739C60.8546 35.7653 62.6903 34.7975 63.8947 33.2533C65.278 33.3538 66.4615 32.1639 68.0604 32.5288C67.8658 34.2422 67.0874 35.5855 66.351 36.9393L66.3458 36.9446Z" fill="#002E21"/>
<path d="M60.0447 41.7568C59.9027 42.9679 58.6088 43.7506 59.0191 45.115C59.3873 46.3577 60.9704 46.2626 61.3176 47.463C59.0559 47.4736 57.783 46.5164 57.6516 44.7607C57.5306 43.1054 58.2564 42.1429 60.0447 41.7568Z" fill="#002E21"/>
<path d="M42.4468 129.618C45.4606 128.735 48.7006 129.111 51.7302 129.37C59.1832 130.015 66.431 131.543 73.195 134.976C75.3094 136.049 77.7552 136.144 80.0326 136.752C89.0793 139.175 98.126 141.602 107.162 144.072C117.035 146.769 126.897 149.524 136.769 152.226C137.474 152.417 138.236 152.898 138.989 152.316C139.199 151.539 138.668 151.422 138.152 151.28C134.949 150.381 131.751 149.476 128.553 148.572C128.553 148.345 128.559 148.117 128.564 147.89C135.58 147.065 142.597 146.235 149.729 145.394C150.581 149.635 151.38 153.591 152.164 157.546C152.879 161.169 153.584 164.792 154.268 168.419C155.43 174.543 155.583 180.657 154.042 186.749C153.411 189.256 152.422 191.604 150.897 193.672C147.983 197.622 143.938 199.457 139.12 199.6C135.301 199.716 131.662 198.727 128.08 197.516C119.223 194.523 111.123 189.986 103.186 185.136C98.8465 182.487 94.7177 179.499 90.4678 176.717C85.5605 173.502 80.4166 170.656 75.362 167.668C66.3048 162.322 57.2529 156.975 48.1746 151.666C45.9866 150.386 43.7197 149.233 41.2266 147.885C41.2739 142.411 42.4468 129.603 42.4468 129.603V129.618Z" fill="white"/>
<path d="M48.0528 153.152C60.6129 160.54 73.0732 167.864 85.4492 175.141C85.4282 176.172 84.6971 176.241 84.2079 176.521C69.3914 184.893 54.3802 192.878 38.7063 199.531C35.6451 200.832 32.4788 201.869 29.3335 202.963C22.4696 205.354 16.584 203.492 11.2875 198.971C5.24409 193.804 2.47223 187.246 3.3506 179.277C4.31312 170.545 5.37558 161.83 6.41174 152.999C17.1573 152.041 27.8555 151.089 38.7221 150.127C38.8641 151.703 38.9009 152.972 38.6958 154.411C30.3013 156.801 21.9331 159.186 13.5597 161.571C13.8437 163.004 14.5432 162.639 15.2165 162.449C19.8503 161.137 24.4893 159.842 29.1231 158.53C35.3559 156.769 41.5886 154.998 48.0528 153.162V153.152Z" fill="white"/>
<path d="M66.347 36.9452C67.0834 35.586 67.8618 34.2481 68.0564 32.5346C66.4575 32.1645 65.2741 33.3596 63.8908 33.2591C63.449 31.7996 63.449 30.3505 63.7856 28.8592C64.1117 27.4208 64.5482 25.9929 64.401 24.6814C65.0479 24.1525 65.5423 24.0309 66.0841 24.0097C71.8645 23.7718 77.424 22.3122 83.0203 20.9953C85.3871 20.4348 87.6488 19.4617 90.0998 19.2607C90.6048 21.3074 91.1044 23.354 91.6094 25.4006C90.5732 25.5539 89.3319 25.3636 89.0637 26.8866C90.1893 27.5953 91.0781 26.4847 92.0722 26.6592C92.4562 28.2775 92.9033 29.8799 93.1978 31.514C93.3451 32.3337 93.9447 33.1587 93.3556 34.0365C92.5824 33.8409 92.5982 32.5981 91.5989 32.7039C90.326 34.449 90.5154 35.163 92.5246 36.0673C92.6824 35.8822 92.9296 35.7077 92.9927 35.4856C93.1399 34.9937 93.1925 34.4702 93.2872 33.9572C93.445 33.9784 93.7238 33.9731 93.7343 34.026C94.4023 36.7442 95.6593 39.2403 96.6061 41.8528C95.5752 42.1913 95.044 43.1326 94.3181 43.8201C93.6291 44.4706 92.9559 44.8302 92.0722 44.2379C93.7974 41.4297 93.7764 40.8903 91.8566 38.3625C91.4305 37.8019 90.9992 37.2466 90.568 36.6966C88.1748 33.6611 86.5443 30.3241 86.4654 26.3578C86.4654 26.252 86.2445 26.1462 86.0867 26.0035C85.324 26.3948 85.3556 27.1246 85.3766 27.8121C85.4398 30.1549 86.255 32.2808 87.3858 34.2904C88.3799 36.0567 89.637 37.6379 90.8835 39.2245C92.614 41.4244 92.1722 42.9316 89.6002 44.1427C88.8954 44.4759 88.017 44.4018 87.47 45.0734C84.2353 44.735 81.0689 45.5177 77.8605 45.634C75.6357 45.7133 73.7422 44.9571 72.1538 43.5715C70.3076 41.9586 68.6666 40.1129 66.9256 38.3836C66.5154 37.9764 66.4575 37.4634 66.3628 36.9452H66.347ZM80.0486 29.4198C77.6028 27.4049 75.136 27.8756 74.0209 30.5779C76.493 30.8476 78.4706 30.4669 80.0486 29.4198ZM80.2695 34.9409C78.6968 36.9029 78.8336 37.5956 80.9427 39.0817C82.9414 37.5851 82.7678 36.2471 80.2695 34.9409Z" fill="white"/>
<path d="M108.549 128.55C109.511 128.281 110.479 127.947 111.468 127.741C114.482 127.128 116.191 128.741 115.912 131.829C115.755 133.579 114.629 134.849 113.635 136.451C116.165 136.493 118.2 137.181 118.916 139.656C119.594 142.004 118.284 143.675 116.628 145.346C113.461 144.484 110.274 143.617 106.86 142.691C108.67 140.338 111.652 139.28 112.709 136.441C110.973 136.737 110.1 138.223 108.838 139.138C107.565 140.063 106.334 141.041 104.956 142.099C98.5869 140.359 92.2174 138.619 85.4902 136.784C87.7729 133.521 90.0819 130.697 92.9064 128.355C95.6151 126.107 98.6237 124.319 101.879 122.966C103.184 122.421 104.541 122.151 105.961 122.109C108.649 122.035 110.49 124.684 108.98 126.964C108.712 127.366 108.286 127.762 108.538 128.534L108.549 128.55ZM95.1313 138.059C98.9445 134.272 103.531 131.665 107.944 128.772C104.067 129.291 101.122 131.596 98.2134 133.881C96.8775 134.933 95.1944 135.854 95.126 138.053L95.1313 138.059Z" fill="white"/>
<path d="M48.9686 115.234C51.1356 114.552 67.5669 114.013 70.0232 114.547C70.1442 117.307 70.2652 120.142 70.3861 122.892C68.0561 123.738 51.3092 124.304 49.2053 123.616C49.1317 120.85 48.7793 118.011 48.9739 115.234H48.9686ZM57.7629 121.559C57.1895 119.597 57.7366 118.058 57.2106 116.636C56.49 116.35 55.8325 116.308 55.1909 116.763C54.7543 117.81 54.7859 119.015 54.1284 119.983C53.3342 119.01 53.492 117.603 52.6504 116.689C52.014 116.519 51.4249 116.392 50.899 116.826C50.515 121.247 50.5939 121.67 51.9299 122.315C52.5978 121.607 51.993 120.639 52.4243 119.888C53.3868 120.454 52.6241 122.606 54.5702 122.278C55.3802 121.533 55.2435 120.39 55.7484 119.518C56.1744 120.359 55.7326 121.332 56.3375 122.167H59.0936C59.73 121.342 60.5189 120.454 61.4289 121.39C62.1863 122.173 62.9331 121.998 63.7694 122.088C64.9581 122.215 65.2158 121.03 65.8733 120.549C66.7727 121.125 67.1935 122.575 68.5189 121.416C67.9667 120.618 67.4302 119.835 66.9778 119.174C67.1304 117.989 68.2349 117.323 68.0929 116.239C66.6044 115.631 66.494 117.18 65.684 117.487C64.9897 116.948 64.7004 115.382 63.2855 116.614C63.7011 117.487 64.49 118.138 64.6531 119.047C64.4059 119.862 64.0429 120.491 63.3013 121.226C62.6491 119.518 62.0653 117.989 61.5183 116.551C60.6925 116.207 60.035 116.176 59.2934 116.662C58.8516 118.074 58.3835 119.56 57.7576 121.564L57.7629 121.559Z" fill="white"/>
<path d="M123.733 147.356C123.36 147.362 122.829 147.108 122.666 147.034C122.34 146.886 122.145 146.547 122.04 146.209C121.861 145.638 121.772 145.035 121.63 144.453C121.445 143.707 121.261 142.956 121.077 142.211C120.714 140.714 120.357 139.217 119.989 137.721C119.978 137.679 119.967 137.631 119.957 137.589C117.674 128.371 115.392 119.153 113.114 109.93C112.935 109.2 112.467 108.439 113.235 107.593C114.429 107.884 114.298 109.031 114.508 109.851C115.77 114.79 116.975 119.746 118.195 124.695C118.937 127.71 119.683 130.724 120.425 133.739C121.167 136.753 121.924 139.688 122.624 142.671C122.855 143.453 123.886 147.356 123.728 147.356H123.733Z" fill="white"/>
<path d="M44.055 128.207C43.7184 128.254 42.4876 128.619 42.4455 128.561C42.3929 128.492 42.8505 120.835 43.3502 117.164C43.5027 116.049 43.6763 114.933 44.034 113.859C44.0445 113.827 44.0603 113.79 44.0866 113.769C44.1234 113.743 44.1707 113.748 44.2128 113.759C44.9965 113.923 44.8966 115.123 44.8492 115.71C44.7651 116.72 44.6125 117.725 44.5284 118.74C44.2812 121.802 44.0708 128.212 44.0603 128.212L44.055 128.207Z" fill="white"/>
<path d="M45.9645 152.337C44.1394 152.877 42.3195 153.411 40.3892 153.982C39.7528 152.781 40.2472 151.549 40 150.275C42.7193 148.789 44.0026 151.512 45.9645 152.337Z" fill="white"/>
<path d="M92.0652 26.6483C91.0658 26.4738 90.1822 27.5843 89.0566 26.8757C89.3301 25.3526 90.5714 25.5377 91.6023 25.3896C92.2756 25.617 92.4544 26.0243 92.0652 26.6483Z" fill="#FE7704"/>
<path d="M87.4581 45.0729C88.0104 44.4013 88.8835 44.47 89.5883 44.1422C92.1603 42.9364 92.6073 41.4239 90.8716 39.2239C89.6198 37.6374 88.3628 36.0509 87.3739 34.2899C86.2431 32.2803 85.4278 30.1543 85.3647 27.8116C85.3437 27.1241 85.3174 26.3943 86.0748 26.0029C86.2326 26.1457 86.4535 26.2462 86.4535 26.3573C86.5376 30.3236 88.1681 33.6605 90.5561 36.6961C90.9926 37.2461 91.4239 37.8014 91.8447 38.3619C93.7645 40.8951 93.7855 41.4292 92.0603 44.2373L92.0866 44.359C91.608 44.396 91.2661 44.6498 91.0136 45.0412C90.2352 45.3109 89.462 45.5912 88.6836 45.8556C87.9735 46.0936 87.5843 45.7869 87.4476 45.0835L87.4581 45.0729Z" fill="#002E21"/>
<path d="M83.6349 49.4043C85.0182 50.9115 86.675 51.2235 88.6369 50.7634C87.7638 52.5456 86.4068 52.0644 85.3022 51.8634C84.2345 51.6677 83.2773 51.0331 83.6349 49.4043Z" fill="#002E21"/>
<path d="M91.0254 45.0357C91.2779 44.6444 91.6197 44.3905 92.0984 44.3535C92.2088 45.3213 91.483 44.967 91.0254 45.0357Z" fill="white"/>
<path d="M49.3987 49.0654C50.2613 49.5467 50.4822 49.9856 49.9036 50.562C49.5775 50.8899 49.1462 51.0221 48.8201 50.6308C48.1521 49.8375 48.7885 49.4726 49.3987 49.0654Z" fill="#F5E6D7"/>
<path d="M80.0471 29.4195C78.4692 30.4719 76.4916 30.8474 74.0195 30.5777C75.1346 27.8753 77.6014 27.3993 80.0471 29.4195Z" fill="#FE7704"/>
<path d="M80.2696 34.9404C82.7679 36.252 82.9415 37.5846 80.9428 39.0813C78.8337 37.5952 78.7022 36.9024 80.2696 34.9404Z" fill="#002E21"/>
<path d="M93.285 33.9463C93.1903 34.4539 93.1377 34.9775 92.9904 35.4746C92.9221 35.702 92.6801 35.8712 92.5223 36.0563C90.5131 35.152 90.3238 34.4381 91.5966 32.6929C92.596 32.5871 92.5802 33.8299 93.3534 34.0256L93.2902 33.9463H93.285Z" fill="#002E21"/>
<path d="M95.1328 138.059C95.2012 135.859 96.879 134.934 98.2203 133.887C101.129 131.602 104.069 129.297 107.951 128.778C103.538 131.666 98.9514 134.273 95.1381 138.065L95.1328 138.059Z" fill="#002E21"/>
<path d="M57.7622 121.559C58.3881 119.56 58.8562 118.069 59.298 116.657C60.0397 116.17 60.6971 116.202 61.5229 116.546C62.0699 117.984 62.6537 119.513 63.3059 121.221C64.0423 120.491 64.4105 119.856 64.6577 119.042C64.4999 118.132 63.7109 117.482 63.2901 116.609C64.705 115.372 64.9943 116.943 65.6886 117.482C66.4986 117.175 66.6143 115.626 68.0975 116.234C68.2395 117.318 67.135 117.984 66.9825 119.169C67.4348 119.825 67.9713 120.607 68.5235 121.411C67.1981 122.569 66.7721 121.12 65.8779 120.544C65.2204 121.025 64.9575 122.215 63.774 122.083C62.9377 121.993 62.1909 122.167 61.4335 121.385C60.5235 120.449 59.7346 121.332 59.0982 122.162H56.3421C55.7372 121.321 56.179 120.354 55.753 119.513C55.2428 120.391 55.3796 121.528 54.5748 122.273C52.6287 122.596 53.3914 120.443 52.4289 119.878C51.9976 120.629 52.6024 121.602 51.9345 122.305C50.5985 121.66 50.5196 121.237 50.9036 116.816C51.4295 116.382 52.0186 116.514 52.655 116.678C53.4966 117.593 53.3388 119 54.133 119.973C54.7957 119.005 54.7589 117.799 55.1955 116.752C55.8424 116.297 56.4946 116.34 57.2152 116.625C57.7412 118.048 57.1942 119.587 57.7675 121.549L57.7622 121.559ZM60.4604 118.117C60.0712 118.73 59.9134 119.206 60.492 119.645C61.1126 119.121 60.7707 118.693 60.4604 118.117Z" fill="#002E21"/>
<path d="M60.46 118.116C60.7756 118.698 61.1122 119.121 60.4916 119.645C59.913 119.206 60.0708 118.73 60.46 118.116Z" fill="#F5E6D7"/>
</g>
<defs>
<clipPath id="clip0_2006_9456">
<rect width="155.556" height="204.444" fill="white" transform="translate(0.888672 0.777344)"/>
</clipPath>
</defs>
</svg>
