<svg xmlns="http://www.w3.org/2000/svg" fill="none" viewBox="0 0 96 61">
  <path fill="#fff" d="M10.826 13.374h2.3v29.044h-2.588V15.93H0L31.758.05l1.146 2.286-22.078 11.038Zm74.35-.05h-2.303v46.64h1.569V15.88H96L64.243 0l-1.145 2.285 22.078 11.038Zm-62.958 32.58c-1.519 3.737-3.193 7.483-4.596 11.269-1.4-3.784-3.076-7.532-4.595-11.27h-2.49v14.063h1.74v-6.66c.048-1.847-.152-3.694-.098-5.54a111.99 111.99 0 0 0 2.174 5.41c.956 2.263 1.912 4.528 2.87 6.79h.795c.958-2.262 1.914-4.527 2.87-6.79a111.99 111.99 0 0 0 2.174-5.41c.054 1.846-.146 3.693-.099 5.54v6.66h1.74V45.903h-2.488.003Zm11.664 7.28v6.782H32.51l-.188-1.087c-.78.875-1.712 1.343-3.128 1.335-1.018.006-1.728-.231-2.364-.813-1.319-1.306-1.248-3.864.37-4.903 1.503-.973 3.419-.703 5.044-.212-.015-.72.125-1.538-.346-2.15-.534-.74-1.498-1.012-2.374-.983-.933-.027-1.838.235-2.716.515v-1.373c1.434-.56 3.051-.757 4.552-.353.824.222 1.593.713 2.055 1.438.355.526.476 1.176.465 1.801m-1.634 2.407c-1.208-.266-2.534-.604-3.724-.098-1.102.487-1.182 2.135-.362 2.918.626.52 1.526.549 2.277.32a4.55 4.55 0 0 0 1.785-1.088c.073-.679.015-1.368.026-2.05m39.75-2.407v6.783h-1.373l-.187-1.087c-.778.875-1.712 1.343-3.128 1.335-1.018.006-1.728-.231-2.364-.813-1.32-1.306-1.248-3.864.37-4.903 1.502-.973 3.419-.703 5.044-.212-.015-.72.127-1.538-.346-2.15-.535-.74-1.498-1.012-2.374-.983-.933-.027-1.838.235-2.716.515v-1.373c1.433-.56 3.051-.757 4.554-.353.823.222 1.592.713 2.054 1.438.356.526.476 1.176.465 1.801m-1.637 2.407c-1.208-.266-2.534-.604-3.724-.098-1.102.487-1.182 2.135-.362 2.918.627.52 1.526.549 2.277.32a4.528 4.528 0 0 0 1.783-1.088c.073-.679.015-1.368.026-2.05m11.094-2.407v6.783H80.08l-.186-1.087c-.78.875-1.712 1.343-3.127 1.335-1.019.006-1.73-.231-2.365-.813-1.32-1.306-1.248-3.864.37-4.903 1.503-.973 3.419-.703 5.044-.212-.015-.72.127-1.538-.347-2.15-.533-.74-1.497-1.012-2.373-.983-.933-.027-1.838.235-2.716.515v-1.373c1.433-.56 3.051-.757 4.554-.353.823.222 1.592.713 2.055 1.438.355.526.475 1.176.465 1.801m-1.638 2.407c-1.208-.266-2.534-.604-3.724-.098-1.102.487-1.182 2.135-.362 2.918.626.52 1.526.549 2.277.32a4.548 4.548 0 0 0 1.785-1.088c.073-.679.015-1.368.026-2.05m-27.771-5.761c-.962.19-1.78.815-2.377 1.572l-.3-1.38h-1.283v9.945h1.655v-7.06c.523-.843 1.37-1.556 2.37-1.735.55-.058 1.155-.058 1.629.27.62.387.867 1.16.856 1.859v6.666h1.647v-6.894c0-.165.087-.293.176-.416.631-.812 1.547-1.514 2.62-1.51.605-.047 1.242.165 1.64.635.376.493.466 1.133.495 1.735v6.449h1.588l-.003-6.995c.03-1.173-.59-2.426-1.707-2.9-1.168-.523-2.594-.44-3.68.246-.57.373-1.022.888-1.453 1.406-.208-.347-.397-.712-.678-1.007-.769-.897-2.082-1.154-3.197-.888M43.927 59.98l-3.784-5.081 3.658-4.876h-1.803L39.325 53.8l-2.814-3.778h-1.803l3.657 4.879-3.783 5.08 1.76-.012 2.856-3.957 2.967 3.957 1.76.012.002-.002Zm2.606-9.958h-1.637v9.958h1.637v-9.958Zm0-4.151h-1.637v1.793h1.637V45.87Zm-2.402-28.73v25.113h3.166V17.141H44.13Zm8.875 0v25.113h3.078c0-4.713.008-9.428-.002-14.142.022-1.697-.098-3.389-.134-5.086-.031-.553-.13-1.106-.073-1.66.308.354.532.769.792 1.158 1.895 2.92 3.882 5.781 5.9 8.619 2.613 3.706 5.22 7.407 7.835 11.111h3.073v-25.11h-3.087l.003 14.934c.013.659-.012 1.32.075 1.974.04.815.013 1.632.064 2.447.065.494.097.994.073 1.493a3.365 3.365 0 0 1-.406-.506c-2.248-3.514-4.645-6.929-7.06-10.33-2.35-3.337-4.712-6.673-7.056-10.013h-3.077l.002-.002Zm-17.615 0v15.92c-.08 1.378-.27 2.806-.982 4.018-.676 1.202-1.813 2.146-3.135 2.556a8.575 8.575 0 0 1-2.654.38 8.575 8.575 0 0 1-2.655-.38c-1.322-.41-2.459-1.354-3.134-2.556-.713-1.212-.9-2.64-.982-4.019V17.141h-3.022V33.17a11.92 11.92 0 0 0 .573 3.829c.521 1.595 1.487 3.07 2.873 4.043 1.654 1.147 3.689 1.636 5.68 1.67a26.945 26.945 0 0 0 1.333 0c1.991-.034 4.026-.523 5.68-1.67 1.386-.973 2.352-2.448 2.873-4.043a11.9 11.9 0 0 0 .572-3.83V17.142h-3.02Z"/>
</svg>
