<svg xmlns="http://www.w3.org/2000/svg" viewBox="0 0 96 96" fill="none"><path fill="currentColor" d="M48 8c22.091 0 40 17.909 40 40S70.091 88 48 88 8 70.091 8 48 25.909 8 48 8ZM35.858 34.602l-.216 1.995-.119 1.336-.168 2.396-.095 1.84-.07 2.024-.04 2.193v2.315l.04 2.194.07 2.024.095 1.842.169 2.396.285 2.92.05.411c.385 3.154 3.672 5.062 6.606 3.815l1.824-.806 2.603-1.236 1.562-.784 1.718-.897 1.863-1.011 1.993-1.128 1.973-1.163c.315-.189.624-.376.925-.56l1.721-1.075 1.548-1.002 1.37-.916 2.612-1.84.708-.526c2.551-1.92 2.536-5.725-.005-7.633l-1.623-1.185-1.1-.772-1.284-.873-2.256-1.473-1.715-1.072-1.876-1.128-1.997-1.153-1.914-1.06-1.785-.949-1.641-.839-2.16-1.053-1.756-.81-.921-.407a67.203 67.203 0 0 0-.38-.164c-2.928-1.248-6.227.648-6.614 3.814Z"/></svg>